<?xml version="1.0" standalone="no"?>
<!DOCTYPE svg PUBLIC "-//W3C//DTD SVG 20010904//EN"
 "http://www.w3.org/TR/2001/REC-SVG-20010904/DTD/svg10.dtd">
<svg version="1.0" xmlns="http://www.w3.org/2000/svg"
 width="536.000000pt" height="797.000000pt" viewBox="0 0 536.000000 797.000000"
 preserveAspectRatio="xMidYMid meet">

<g transform="translate(0.000000,797.000000) scale(0.100000,-0.100000)"
fill="#000000" stroke="none">
<path d="M3720 7956 c-368 -78 -513 -363 -354 -694 56 -117 132 -179 241 -197
64 -10 128 22 153 77 54 119 -9 250 -118 247 -26 -1 -60 -5 -77 -9 -30 -7 -30
-7 -5 -13 14 -3 42 -9 63 -12 59 -10 85 -25 102 -60 29 -63 13 -131 -41 -174
-32 -25 -55 -26 -116 -5 -152 51 -229 247 -156 390 51 98 165 184 264 200 22
3 66 1 97 -6 98 -20 117 -68 97 -239 -22 -182 -19 -246 18 -325 40 -86 158
-207 249 -254 74 -39 163 -58 193 -42 22 12 95 150 134 253 62 166 77 361 37
488 -55 175 -205 309 -406 364 -82 23 -291 28 -375 11z m375 -46 c102 -32 175
-72 238 -130 47 -43 117 -134 117 -153 0 -3 -35 11 -77 31 -71 34 -86 37 -163
37 -103 0 -172 -28 -250 -101 l-50 -47 0 39 c0 51 -29 104 -70 128 -26 15 -53
20 -119 20 -73 1 -95 -3 -144 -26 -103 -49 -217 -182 -217 -254 0 -44 -19 -34
-26 13 -9 60 7 159 36 219 51 105 200 205 355 239 100 21 278 14 370 -15z"/>
<path d="M4237 6744 c-27 -10 -44 -11 -64 -3 -19 7 -29 7 -31 0 -2 -6 -9 -11
-16 -11 -7 0 -34 -60 -61 -135 -26 -74 -50 -135 -53 -135 -2 0 -68 13 -146 29
-559 116 -1269 144 -1891 75 -1010 -112 -1777 -461 -1935 -882 -155 -411 205
-800 972 -1051 86 -28 163 -51 172 -51 8 0 17 -4 20 -9 3 -4 -31 -804 -77
-1777 -45 -973 -82 -1821 -81 -1884 0 -101 3 -123 26 -178 88 -212 255 -371
533 -508 307 -151 658 -224 1075 -224 562 0 1054 147 1368 409 128 107 234
269 261 399 9 41 0 449 -38 1785 -28 953 -52 1791 -56 1863 l-5 131 117 38
c419 133 742 323 899 526 252 328 131 690 -327 969 -152 93 -427 212 -611 265
-32 9 -58 18 -58 19 0 2 25 69 55 150 30 80 55 151 55 156 0 6 -8 10 -19 10
-10 0 -25 8 -32 18 -13 17 -18 17 -52 6z m-8 -146 c-17 -46 -38 -102 -46 -125
-8 -24 -18 -45 -21 -47 -4 -2 -23 2 -44 8 l-36 11 41 112 41 112 45 4 c25 2
47 4 48 5 1 1 -11 -35 -28 -80z m-1559 -211 l0 -154 -147 -7 c-395 -17 -765
-111 -1014 -257 -96 -56 -198 -154 -240 -231 -31 -58 -34 -70 -34 -148 0 -73
4 -93 29 -143 115 -234 533 -425 1058 -482 73 -8 177 -17 231 -20 l97 -7 0
-239 0 -239 -112 0 c-220 0 -561 31 -838 76 -799 128 -1411 425 -1579 765 -55
112 -65 208 -33 316 153 504 1224 900 2495 922 l87 1 0 -153z m1440 -17 c60
-16 338 -110 425 -145 217 -86 441 -223 566 -347 197 -193 238 -390 126 -603
-45 -84 -188 -226 -313 -308 -157 -104 -434 -229 -641 -290 l-53 -16 0 67 c0
37 -5 247 -11 467 -10 384 -21 524 -39 495 -5 -7 -4 -25 1 -38 6 -14 7 -39 3
-56 -4 -17 -7 -39 -5 -48 1 -10 -2 -18 -8 -18 -6 0 -8 -7 -5 -15 4 -8 2 -15
-3 -15 -5 0 -10 -10 -10 -22 -1 -13 -8 -27 -15 -33 -7 -5 -14 -17 -16 -24 -9
-40 -126 -155 -146 -144 -6 3 -8 2 -3 -2 9 -11 -43 -46 -56 -38 -6 3 -7 1 -4
-4 7 -11 -29 -30 -70 -38 -18 -3 -23 1 -23 16 0 10 4 19 10 19 5 0 7 7 4 15
-4 8 -1 15 5 15 6 0 8 7 5 15 -4 8 -2 15 3 15 5 0 10 10 10 22 1 13 7 24 12
26 5 2 7 10 4 18 -3 8 0 14 6 14 6 0 8 7 5 15 -4 8 -2 15 3 15 5 0 10 10 10
22 1 13 7 24 12 26 5 2 7 10 4 18 -3 8 0 14 7 14 6 0 9 4 6 9 -7 10 16 71 26
71 4 0 5 7 2 15 -4 8 -1 15 5 15 6 0 8 6 5 14 -3 7 1 20 9 27 7 8 12 20 9 27
-2 6 1 12 7 12 6 0 8 7 5 15 -4 8 -1 15 7 15 7 0 10 3 6 6 -3 3 -1 18 5 33 6
14 12 46 12 71 1 46 2 47 47 41 5 0 7 -7 3 -13 -4 -7 -3 -10 1 -5 5 4 20 -3
34 -15 14 -13 10 -5 -9 16 -30 33 -193 149 -224 159 -6 2 16 64 48 138 116
263 114 261 133 255 10 -3 38 -10 63 -16z m-995 -165 c33 -3 76 -7 95 -10 19
-3 47 -6 62 -6 15 0 30 -4 33 -8 3 -5 14 -7 24 -4 10 3 22 0 25 -6 4 -5 13 -8
20 -5 8 3 17 1 20 -5 4 -6 13 -8 20 -5 8 3 17 1 20 -5 4 -6 13 -8 21 -4 8 3
15 0 15 -7 0 -6 4 -9 8 -6 11 7 82 -15 82 -25 0 -5 7 -6 15 -3 8 4 15 1 15 -5
0 -6 6 -8 14 -5 7 3 20 -1 27 -9 8 -7 19 -12 25 -10 7 2 18 -3 27 -11 8 -8 17
-12 21 -9 3 4 6 1 6 -6 0 -7 4 -10 9 -6 12 7 61 -15 61 -27 0 -5 5 -6 10 -3 6
3 10 1 10 -5 0 -6 4 -9 9 -6 14 9 41 -4 41 -20 0 -8 -5 -14 -11 -14 -5 0 -7
-4 -4 -10 3 -5 2 -10 -2 -10 -5 0 -9 -9 -10 -20 -2 -19 -49 -69 -66 -70 -5 0
-5 -4 -2 -10 3 -5 2 -10 -4 -10 -6 0 -8 -7 -5 -15 4 -8 2 -15 -3 -15 -5 0 -10
-10 -10 -22 -1 -13 -7 -24 -12 -26 -5 -2 -7 -10 -4 -18 3 -8 0 -14 -6 -14 -6
0 -8 -6 -5 -14 3 -7 -1 -20 -9 -27 -7 -8 -12 -20 -9 -27 2 -6 -1 -12 -7 -12
-6 0 -8 -7 -5 -15 4 -8 2 -15 -3 -15 -5 0 -10 -10 -10 -22 -1 -13 -7 -24 -12
-26 -5 -2 -7 -10 -4 -18 3 -8 0 -14 -6 -14 -6 0 -8 -7 -5 -15 4 -8 2 -15 -3
-15 -5 0 -10 -10 -10 -22 -1 -13 -7 -24 -12 -26 -5 -2 -7 -10 -4 -18 3 -8 0
-14 -6 -14 -6 0 -8 -6 -5 -14 3 -7 -1 -20 -9 -27 -7 -8 -12 -20 -9 -27 2 -6
-1 -12 -7 -12 -6 0 -8 -7 -5 -15 4 -8 1 -15 -5 -15 -6 0 -8 -6 -5 -14 3 -7 -1
-20 -9 -27 -7 -8 -12 -20 -9 -27 2 -6 -1 -12 -7 -12 -6 0 -8 -7 -5 -15 4 -8 2
-15 -3 -15 -5 0 -10 -10 -10 -22 -1 -13 -7 -24 -12 -26 -5 -2 -7 -10 -4 -18 3
-8 0 -14 -7 -14 -6 0 -9 -4 -5 -9 6 -11 -15 -62 -30 -73 -5 -4 -15 -6 -22 -3
-7 2 -15 0 -19 -6 -3 -6 -12 -8 -20 -5 -7 3 -16 1 -19 -4 -3 -5 -13 -9 -23 -9
-9 0 -30 -3 -47 -6 -16 -4 -41 -8 -55 -9 -14 -2 -27 -5 -30 -6 -21 -12 -230
-29 -408 -33 l-133 -3 2 360 c2 199 -1 480 -5 626 l-7 265 193 -2 c106 -1 220
-5 253 -8z m-1039 -1840 c66 -33 124 -95 168 -183 20 -39 40 -73 46 -77 39
-24 110 -231 130 -381 19 -137 8 -437 -18 -536 -40 -148 -97 -228 -164 -228
-21 0 -50 7 -63 16 -29 19 -77 92 -101 154 -9 25 -18 47 -20 49 -2 1 -29 -23
-61 -54 -197 -193 -437 -218 -583 -59 -89 97 -131 229 -131 413 0 288 117 571
313 757 160 151 340 199 484 129z m2013 24 c28 -6 61 -19 73 -29 22 -18 22
-21 8 -47 -20 -37 -138 -95 -258 -126 -50 -13 -94 -26 -96 -28 -3 -3 -1 -22 4
-44 59 -250 51 -764 -15 -1019 -40 -154 -53 -176 -124 -213 l-61 -32 -26 34
c-51 67 -93 228 -115 434 -17 164 -6 532 20 676 11 61 21 113 21 118 0 4 -30
7 -67 8 -68 0 -68 0 -98 42 -17 22 -50 56 -75 75 -25 19 -46 38 -48 42 -7 19
264 88 424 109 100 12 375 13 433 0z m-1373 -84 l33 -36 40 21 c151 77 394 31
520 -99 188 -193 122 -464 -131 -543 -97 -29 -249 -20 -325 20 -20 11 -21 9
-27 -96 -14 -221 -51 -423 -93 -506 -21 -43 -63 -86 -84 -86 -29 0 -77 66 -99
137 -43 138 -54 244 -55 503 0 254 10 359 46 502 34 135 81 218 125 218 9 0
32 -16 50 -35z m-1201 -1334 c28 -10 78 -22 112 -26 l63 -7 11 -41 c7 -23 15
-89 18 -147 l6 -105 21 35 c11 19 49 70 83 112 124 154 261 219 326 154 27
-28 38 -63 60 -206 27 -171 30 -294 10 -370 -12 -42 -20 -122 -25 -230 -5
-136 -10 -175 -29 -222 -72 -185 -169 -154 -226 74 l-17 65 -86 -87 c-119
-118 -193 -151 -261 -115 -33 16 -61 77 -61 130 0 19 -3 35 -7 35 -3 0 -22
-19 -41 -41 -60 -69 -108 -99 -162 -99 -60 0 -90 23 -119 90 -85 197 -11 628
152 883 37 57 104 137 116 137 3 0 29 -8 56 -19z m1373 -37 c51 -25 99 -75
122 -126 l12 -26 36 24 c44 30 70 30 113 1 40 -27 101 -141 124 -231 40 -160
45 -418 11 -576 -19 -86 -64 -189 -98 -223 l-24 -24 25 -1 c15 -1 43 -2 64 -3
20 0 39 -5 42 -10 3 -4 12 -6 20 -2 8 3 15 0 15 -7 0 -7 7 -10 15 -6 8 3 15 1
15 -4 0 -5 7 -7 15 -4 8 4 15 1 15 -6 0 -6 5 -8 10 -5 6 3 10 1 10 -5 0 -6 4
-9 10 -5 5 3 18 -3 29 -14 11 -11 21 -17 24 -15 2 3 24 -15 49 -38 24 -24 30
-32 13 -18 -17 14 -7 1 23 -27 29 -29 51 -57 47 -63 -3 -5 -1 -10 5 -10 6 0 8
-4 5 -10 -3 -5 -1 -10 4 -10 6 0 10 -3 10 -7 -1 -5 0 -11 1 -15 1 -5 4 -12 5
-18 1 -5 4 -11 5 -12 6 -6 11 -57 13 -120 1 -38 6 -68 10 -68 5 0 5 -4 2 -10
-3 -5 -1 -10 5 -10 6 0 8 -5 5 -10 -3 -6 -1 -10 5 -10 7 0 10 -7 6 -15 -3 -8
-1 -15 5 -15 6 0 9 -7 5 -15 -3 -8 -1 -15 5 -15 6 0 9 -7 6 -15 -4 -8 -2 -17
4 -21 6 -3 8 -12 5 -20 -3 -7 -1 -16 4 -19 11 -7 12 -24 12 -205 0 -184 0
-188 -12 -195 -5 -3 -7 -12 -4 -19 3 -8 1 -17 -5 -20 -6 -4 -8 -13 -4 -21 3
-8 1 -15 -4 -15 -5 0 -9 -9 -10 -21 -4 -52 -90 -156 -120 -145 -7 3 -13 1 -13
-4 0 -14 -46 -12 -83 4 -32 13 -99 76 -82 76 5 0 1 6 -8 12 -9 7 -17 20 -19
28 -2 8 -9 21 -16 29 -7 7 -11 20 -8 27 3 8 2 14 -3 14 -5 0 -12 11 -15 25 -6
24 -7 24 -25 7 -10 -9 -16 -20 -14 -24 2 -4 -3 -10 -11 -15 -8 -4 -14 -12 -14
-17 2 -33 -155 -165 -200 -169 -12 -1 -22 -5 -22 -9 0 -12 -114 -6 -142 9 -25
12 -33 24 -29 46 0 4 -3 7 -8 7 -5 0 -9 34 -8 75 0 41 4 75 8 75 5 0 6 7 3 15
-4 8 -1 15 5 15 6 0 8 7 5 15 -4 8 -1 15 6 15 6 0 8 5 5 10 -3 6 -1 10 5 10 6
0 9 4 6 9 -3 5 6 25 19 46 27 39 25 59 -6 50 -10 -4 -19 -2 -19 4 0 6 -7 8
-15 5 -8 -4 -15 -1 -15 5 0 6 -6 8 -14 5 -7 -3 -20 2 -29 10 -8 8 -17 12 -21
9 -3 -4 -6 -1 -6 6 0 7 -4 9 -10 6 -5 -3 -22 7 -37 22 -14 15 -23 21 -18 13 5
-8 -19 13 -53 47 -63 64 -97 116 -87 133 3 6 2 10 -4 10 -6 0 -8 7 -5 15 4 8
2 15 -4 15 -11 0 -12 11 -12 110 0 99 1 110 12 110 6 0 8 7 4 15 -3 8 -1 15 4
15 5 0 7 7 4 15 -4 8 -1 15 6 15 6 0 8 5 5 10 -3 6 -1 10 5 10 6 0 8 5 5 10
-3 6 -1 10 6 10 7 0 9 3 6 7 -4 3 1 12 11 20 9 8 11 11 3 8 -21 -11 17 42 48
66 14 11 19 17 11 13 -13 -7 -13 -6 -1 9 24 30 133 107 142 101 5 -3 9 0 9 6
0 6 5 8 10 5 6 -3 10 -1 10 5 0 6 5 8 10 5 6 -3 10 -1 10 6 0 7 3 10 6 6 4 -3
13 1 21 9 9 8 22 13 29 10 8 -3 14 -1 14 5 0 6 7 9 15 6 8 -4 17 -2 20 4 4 5
10 7 15 4 5 -3 18 0 29 7 19 12 19 12 -5 41 -35 42 -70 115 -90 186 l-17 61
-38 -58 c-57 -88 -166 -187 -246 -224 -195 -92 -365 16 -414 261 -17 88 -6
285 21 386 24 91 92 240 141 312 145 212 337 302 487 227z m1198 -30 c97 -26
154 -83 140 -139 -30 -117 -317 -192 -499 -130 l-39 13 7 -26 c98 -387 71
-812 -56 -878 -188 -97 -358 624 -238 1010 38 123 103 158 176 92 38 -33 38
-33 58 -14 84 82 293 115 451 72z m-1808 -1076 c12 -20 41 -53 64 -73 l41 -37
-40 -87 -39 -86 -51 2 c-61 3 -167 43 -213 82 l-34 28 24 57 c17 44 30 60 54
70 17 7 39 22 48 32 15 18 54 97 73 149 5 16 11 8 29 -41 12 -33 32 -77 44
-96z m-260 -288 c53 -35 131 -66 195 -75 26 -4 47 -11 47 -16 0 -16 -194 -438
-295 -644 -117 -236 -201 -371 -265 -429 -40 -36 -44 -37 -54 -20 -6 11 -11
65 -10 129 1 138 31 276 118 540 63 191 203 545 215 545 3 0 26 -14 49 -30z"/>
<path d="M4155 5720 c-3 -5 -1 -10 4 -10 6 0 11 5 11 10 0 6 -2 10 -4 10 -3 0
-8 -4 -11 -10z"/>
<path d="M4029 5333 l-24 -28 28 24 c25 23 32 31 24 31 -2 0 -14 -12 -28 -27z"/>
<path d="M1915 4241 c-49 -30 -77 -67 -91 -121 -13 -50 -12 -58 8 -113 14 -37
61 -61 105 -52 79 15 154 129 138 212 -15 79 -93 116 -160 74z"/>
<path d="M2974 4196 c-38 -17 -64 -52 -64 -87 0 -62 86 -81 142 -31 73 66 12
158 -78 118z"/>
<path d="M2691 2812 c-52 -26 -74 -63 -79 -132 -4 -57 -3 -61 31 -95 41 -41
70 -44 117 -12 91 61 93 206 5 243 -42 17 -33 17 -74 -4z"/>
<path d="M3060 1578 c0 -4 -13 -15 -29 -24 -17 -10 -28 -21 -25 -25 2 -4 -3
-14 -11 -22 -28 -29 -16 -68 41 -139 12 -15 25 -24 28 -21 3 4 6 2 6 -4 0 -14
93 -11 108 4 8 7 17 11 22 8 4 -3 14 3 21 13 12 15 12 16 -1 7 -10 -6 -9 -4 2
6 9 9 14 19 11 23 -4 3 -2 6 3 6 6 0 10 18 9 40 0 22 -4 40 -9 40 -4 0 -5 7
-2 16 3 8 2 12 -4 9 -6 -3 -11 -1 -11 4 -1 6 -2 17 -3 24 -1 6 -7 11 -14 9 -7
-1 -15 5 -18 13 -3 8 -10 12 -15 9 -5 -3 -9 -2 -9 3 0 4 -22 8 -50 8 -27 0
-50 -3 -50 -7z"/>
<path d="M3214 528 l-19 -23 23 19 c12 11 22 21 22 23 0 8 -8 2 -26 -19z"/>
<path d="M3634 468 l-19 -23 23 19 c12 11 22 21 22 23 0 8 -8 2 -26 -19z"/>
</g>
</svg>
