<?xml version="1.0" standalone="no"?>
<!DOCTYPE svg PUBLIC "-//W3C//DTD SVG 20010904//EN"
 "http://www.w3.org/TR/2001/REC-SVG-20010904/DTD/svg10.dtd">
<svg version="1.0" xmlns="http://www.w3.org/2000/svg"
 width="500.000000pt" height="500.000000pt" viewBox="0 0 500.000000 500.000000"
 preserveAspectRatio="xMidYMid meet">

<g transform="translate(0.000000,500.000000) scale(0.100000,-0.100000)"
fill="#000000" stroke="none">
<path d="M2404 4752 c-28 -10 -69 -31 -91 -48 -23 -16 -205 -198 -406 -404
l-365 -375 294 -3 294 -2 0 -465 0 -465 385 0 385 0 0 465 0 465 296 0 c181 0
294 4 292 9 -4 14 -716 740 -756 773 -80 65 -222 86 -328 50z"/>
<path d="M760 3127 c-397 -408 -419 -436 -440 -547 -14 -71 2 -167 38 -238 21
-40 123 -152 402 -439 l375 -384 3 495 c1 272 1 720 0 996 l-3 501 -375 -384z"/>
<path d="M3890 2515 c0 -547 2 -995 3 -995 2 0 173 173 380 385 402 412 416
430 438 550 14 78 -2 173 -41 241 -17 31 -171 197 -401 432 -204 210 -374 382
-375 382 -2 0 -4 -448 -4 -995z"/>
<path d="M2128 1583 l-3 -468 -294 -3 -295 -2 120 -123 c577 -591 644 -657
692 -681 65 -33 146 -45 219 -34 116 18 142 40 544 452 l373 381 -290 5 -289
5 -3 468 -2 467 -385 0 -385 0 -2 -467z"/>
</g>
</svg>
