<?xml version="1.0" standalone="no"?>
<!DOCTYPE svg PUBLIC "-//W3C//DTD SVG 20010904//EN"
 "http://www.w3.org/TR/2001/REC-SVG-20010904/DTD/svg10.dtd">
<svg version="1.0" xmlns="http://www.w3.org/2000/svg"
 width="203.000000pt" height="206.000000pt" viewBox="0 0 203.000000 206.000000"
 preserveAspectRatio="xMidYMid meet">

<g transform="translate(0.000000,206.000000) scale(0.100000,-0.100000)"
fill="#000000" stroke="none">
<path d="M760 1784 c-161 -34 -306 -145 -383 -291 -54 -104 -67 -176 -67 -388
0 -205 12 -280 61 -382 40 -85 157 -205 241 -248 l58 -30 0 -102 c0 -92 2
-104 23 -129 37 -42 62 -28 168 91 l94 105 187 0 c211 0 263 8 363 55 137 65
249 197 298 350 20 63 22 91 22 290 0 185 -3 230 -18 280 -62 204 -228 357
-432 400 -95 20 -522 20 -615 -1z m621 -120 c80 -24 126 -50 186 -107 64 -60
107 -131 128 -212 20 -78 21 -406 1 -480 -39 -146 -142 -260 -285 -313 -59
-22 -85 -25 -253 -30 l-186 -4 -124 -136 -123 -136 -3 151 -3 151 -54 31
c-107 61 -181 151 -217 265 -17 54 -19 87 -16 281 l3 220 32 68 c57 120 172
220 292 253 74 20 552 19 622 -2z"/>
<path d="M1021 1446 c-17 -20 5 -32 71 -39 153 -15 257 -116 282 -274 8 -56
16 -78 26 -78 12 0 15 15 15 70 0 157 -115 288 -283 324 -70 15 -97 14 -111
-3z"/>
<path d="M740 1400 c-47 -51 -63 -96 -58 -164 6 -70 27 -117 101 -224 107
-156 290 -278 432 -289 111 -9 195 51 195 139 0 37 -1 38 -80 78 -44 22 -85
40 -92 40 -7 0 -33 -21 -59 -46 l-47 -46 -48 23 c-85 43 -214 179 -214 227 0
7 15 31 32 53 l33 41 -29 81 c-36 102 -48 117 -99 117 -30 0 -45 -6 -67 -30z"/>
<path d="M1066 1361 c-12 -19 6 -39 43 -45 46 -7 114 -55 142 -99 11 -18 25
-51 31 -74 9 -30 17 -43 30 -43 44 0 6 122 -58 185 -52 52 -173 101 -188 76z"/>
<path d="M1074 1258 c-7 -11 3 -21 55 -50 16 -9 39 -35 51 -57 22 -44 37 -51
47 -24 22 56 -123 180 -153 131z"/>
</g>
</svg>
